<?xml version="1.0" standalone="no"?>
<!DOCTYPE svg PUBLIC "-//W3C//DTD SVG 20010904//EN"
 "http://www.w3.org/TR/2001/REC-SVG-20010904/DTD/svg10.dtd">
<svg version="1.0" xmlns="http://www.w3.org/2000/svg"
 width="400.000000pt" height="400.000000pt" viewBox="0 0 400.000000 400.000000"
 preserveAspectRatio="xMidYMid meet">
<metadata>
Created by potrace 1.11, written by Peter Selinger 2001-2013
</metadata>
<g transform="translate(0.000000,400.000000) scale(0.100000,-0.100000)"
fill="#000000" stroke="none">
<path d="M740 3631 c-128 -7 -163 -19 -202 -73 -23 -33 -23 -38 -31 -398 -12
-543 -1 -2723 14 -2752 17 -34 50 -68 84 -86 27 -16 146 -17 1390 -20 l1360
-2 47 30 c84 53 77 -34 85 1099 l6 1010 -554 3 -554 3 -46 27 c-89 52 -83 12
-89 623 l-5 540 -695 1 c-382 0 -747 -2 -810 -5z m1978 -1437 c20 -14 22 -23
22 -109 0 -83 -2 -96 -19 -105 -13 -7 -259 -10 -727 -10 -644 0 -709 1 -726
17 -15 13 -18 31 -18 100 0 136 -81 123 743 123 620 0 705 -2 725 -16z m6
-480 c12 -12 16 -37 16 -104 0 -80 -2 -90 -22 -104 -20 -14 -106 -16 -730 -16
l-707 0 -15 22 c-23 32 -22 175 1 200 15 17 51 18 729 18 634 0 714 -2 728
-16z m-1 -477 c15 -10 17 -27 15 -107 -3 -89 -4 -95 -28 -107 -20 -10 -174
-12 -728 -10 -815 2 -732 -11 -732 121 0 129 -82 116 745 116 558 0 715 -3
728 -13z"/>
<path d="M2500 3115 l0 -435 248 1 c136 1 339 5 451 8 l204 6 -79 80 c-75 75
-189 186 -484 470 -235 227 -320 305 -330 305 -7 0 -10 -152 -10 -435z"/>
</g>
</svg>
